<svg xmlns="http://www.w3.org/2000/svg" xmlns:xlink="http://www.w3.org/1999/xlink" width="366" zoomAndPan="magnify" viewBox="0 0 274.5 88.499997" height="118" preserveAspectRatio="xMidYMid meet" version="1.0"><defs><g/><clipPath id="6cb1c79201"><path d="M 0.523438 18.859375 L 45 18.859375 L 45 62.113281 L 0.523438 62.113281 Z M 0.523438 18.859375 " clip-rule="nonzero"/></clipPath><clipPath id="1eb1094f07"><path d="M 10 33 L 54.964844 33 L 54.964844 58 L 10 58 Z M 10 33 " clip-rule="nonzero"/></clipPath></defs><g fill="#00357a" fill-opacity="1"><g transform="translate(49.646681, 60.997349)"><g><path d="M 31.359375 0 L 27.875 -8.21875 L 11.421875 -8.21875 L 7.890625 0 L 2.515625 0 L 16.984375 -33.875 L 22.640625 -33.875 L 37.015625 0 Z M 17.03125 -21.390625 L 13.546875 -13.265625 L 25.75 -13.265625 L 22.15625 -21.578125 C 21.738281 -22.640625 21.320312 -23.726562 20.90625 -24.84375 C 20.488281 -25.957031 20.066406 -27.113281 19.640625 -28.3125 C 19.191406 -27.082031 18.757812 -25.882812 18.34375 -24.71875 C 17.925781 -23.5625 17.488281 -22.453125 17.03125 -21.390625 Z M 17.03125 -21.390625 "/></g></g></g><g fill="#00357a" fill-opacity="1"><g transform="translate(85.013501, 60.997349)"><g><path d="M 33.140625 -33.875 L 38.375 -33.875 L 38.375 0 L 33.390625 0 L 10.75 -26.171875 C 10.9375 -24.171875 11.125 -22.160156 11.3125 -20.140625 C 11.507812 -18.128906 11.609375 -16.109375 11.609375 -14.078125 L 11.609375 0 L 6.390625 0 L 6.390625 -33.875 L 11.28125 -33.875 L 33.921875 -7.0625 C 33.691406 -8.644531 33.519531 -10.335938 33.40625 -12.140625 C 33.300781 -13.953125 33.226562 -15.769531 33.1875 -17.59375 C 33.15625 -19.414062 33.140625 -21.132812 33.140625 -22.75 Z M 33.140625 -33.875 "/></g></g></g><g fill="#00357a" fill-opacity="1"><g transform="translate(125.557287, 60.997349)"><g><path d="M 13.796875 0 L 13.796875 -28.84375 L 2.953125 -28.84375 L 2.953125 -33.875 L 30.140625 -33.875 L 30.140625 -28.84375 L 19.015625 -28.84375 L 19.015625 0 Z M 13.796875 0 "/></g></g></g><g fill="#00357a" fill-opacity="1"><g transform="translate(154.489195, 60.997349)"><g><path d="M 33.734375 -23.234375 C 33.734375 -21.035156 33.070312 -19.039062 31.75 -17.25 C 30.425781 -15.457031 28.726562 -14.160156 26.65625 -13.359375 L 35.375 0.046875 L 28.9375 0 L 20.859375 -12.625 L 11.609375 -12.625 L 11.609375 0 L 6.390625 0 L 6.390625 -33.875 L 22.9375 -33.875 C 24.78125 -33.875 26.519531 -33.429688 28.15625 -32.546875 C 29.800781 -31.660156 31.140625 -30.410156 32.171875 -28.796875 C 33.210938 -27.179688 33.734375 -25.328125 33.734375 -23.234375 Z M 21.828125 -28.84375 L 11.609375 -28.84375 L 11.609375 -17.65625 L 22.640625 -17.65625 C 23.773438 -17.65625 24.769531 -17.914062 25.625 -18.4375 C 26.476562 -18.957031 27.140625 -19.644531 27.609375 -20.5 C 28.078125 -21.351562 28.3125 -22.28125 28.3125 -23.28125 C 28.3125 -24.375 28.019531 -25.335938 27.4375 -26.171875 C 26.851562 -27.015625 26.066406 -27.671875 25.078125 -28.140625 C 24.097656 -28.609375 23.015625 -28.84375 21.828125 -28.84375 Z M 21.828125 -28.84375 "/></g></g></g><g fill="#ff751f" fill-opacity="1"><g transform="translate(190.052635, 60.997349)"><g><path d="M 24.625 0 L 5.765625 0 L 5.765625 -4.984375 L 12.578125 -4.984375 L 12.578125 -28.890625 L 5.765625 -28.890625 L 5.765625 -33.875 L 24.625 -33.875 L 24.625 -28.890625 L 17.8125 -28.890625 L 17.8125 -4.984375 L 24.625 -4.984375 Z M 24.625 0 "/></g></g></g><g fill="#ff751f" fill-opacity="1"><g transform="translate(216.275105, 60.997349)"><g><path d="M 2.46875 0 L 15.828125 -17.328125 L 2.703125 -33.875 L 9.53125 -33.875 L 19.59375 -20.65625 L 29.078125 -33.875 L 35.515625 -33.875 L 22.59375 -16.796875 L 36.046875 0 L 29.171875 0 L 18.921875 -13.40625 L 8.90625 0 Z M 2.46875 0 "/></g></g></g><g clip-path="url(#6cb1c79201)"><path fill="#00357a" d="M 23.144531 45.410156 L 8.816406 34.578125 L 8.816406 62.195312 L 0.574219 62.195312 L 0.574219 18.859375 L 14.257812 29.207031 L 14.261719 29.207031 L 23.144531 35.921875 L 44.886719 19.171875 L 44.886719 28.972656 L 29.417969 40.667969 L 27.515625 42.105469 Z M 36.617188 49.757812 L 36.640625 62.195312 L 44.886719 62.195312 L 44.863281 43.523438 Z M 36.617188 49.757812 " fill-opacity="1" fill-rule="nonzero"/></g><g clip-path="url(#1eb1094f07)"><path fill="#ff751f" d="M 42.261719 33.441406 L 23.144531 47.894531 L 10.925781 38.65625 L 10.925781 48.144531 L 23.144531 57.378906 L 54.808594 33.441406 Z M 42.261719 33.441406 " fill-opacity="1" fill-rule="nonzero"/></g></svg>